<svg width="40" height="40" viewBox="0 0 40 40" fill="none" xmlns="http://www.w3.org/2000/svg">
<circle cx="13.7778" cy="9.33333" r="1.33333" fill="white"/>
<circle cx="18.2222" cy="9.33333" r="1.33333" fill="white"/>
<circle cx="22.6667" cy="9.33333" r="1.33333" fill="white"/>
<path fill-rule="evenodd" clip-rule="evenodd" d="M28.77 30.36C27.75 30.7 26.82 31.27 26.05 32.05C24.74 33.36 24 35.14 24 37C24 38.66 25.34 40 27 40H37C38.66 40 40 38.66 40 37C40 35.14 39.26 33.36 37.95 32.05C37.18 31.28 36.24 30.7 35.23 30.36C35.72 29.7 36 28.88 36 27.99C36 27.99 36 28.09 36 26.99C36 24.78 34.21 22.99 32 22.99C29.79 22.99 28 24.78 28 26.99C28 28.09 28 27.99 28 27.99C28 28.87 28.29 29.69 28.77 30.36ZM4.77 29.36C3.75 29.7 2.82 30.27 2.05 31.05C0.74 32.36 0 34.14 0 36V37C0 38.66 1.34 40 3 40H13C14.66 40 16 38.66 16 37V36C16 34.14 15.26 32.36 13.95 31.05C13.18 30.28 12.24 29.7 11.23 29.36C11.72 28.7 12 27.88 12 27V25C12 22.79 10.21 21 8 21C5.79 21 4 22.79 4 25V27C4 27.88 4.29 28.7 4.77 29.36ZM28.35 32.76C28.03 32.96 27.74 33.19 27.47 33.46C26.53 34.4 26.01 35.67 26.01 37C26.01 37.55 26.46 38 27.01 38H37.01C37.56 38 38.01 37.56 38.01 37C38.01 35.67 37.48 34.4 36.55 33.46C36.28 33.19 35.98 32.96 35.67 32.76L32.73 35.71C32.34 36.1 31.71 36.1 31.31 35.71L28.37 32.76H28.35ZM11.65 31.76L8.71 34.71C8.32 35.1 7.69 35.1 7.29 34.71L4.35 31.76C4.03 31.96 3.74 32.19 3.47 32.46C2.53 33.4 2.01 34.67 2.01 36V37C2.01 37.55 2.46 38 3.01 38H13.01C13.56 38 14.01 37.55 14.01 37V36C14.01 34.67 13.48 33.4 12.55 32.46C12.28 32.19 11.98 31.96 11.67 31.76H11.65ZM33.55 32.03L32 33.59L30.45 32.03C30.63 32.01 33.38 32.01 33.56 32.03H33.55ZM6.44 31.03C6.62 31.01 9.37 31.01 9.55 31.03L8 32.59L6.45 31.03H6.44ZM31.99 30C30.89 30 29.99 29.1 29.99 28V27C29.99 25.9 30.88 25 31.99 25C32.52 25 33.03 25.21 33.4 25.59C33.78 25.96 33.99 26.47 33.99 27C33.99 28 33.99 28 33.99 28C33.99 29.1 33.09 30 31.99 30ZM7.99 29C6.89 29 5.99 28.1 5.99 27V25C5.99 23.9 6.88 23 7.99 23C8.52 23 9.03 23.21 9.4 23.59C9.78 23.96 9.99 24.47 9.99 25V27C9.99 28.1 9.09 29 7.99 29ZM10.99 18.05C11 18.83 11.32 19.57 11.87 20.12C12.43 20.68 13.2 21 13.99 21H28.83L31.68 21.95C31.98 22.05 32.32 22 32.58 21.81C32.84 21.62 33 21.32 33 21V6C33 5.2 32.68 4.44 32.12 3.88C31.56 3.32 30.79 3 30 3H29C29 2.2 28.68 1.44 28.12 0.88C27.56 0.32 26.79 0 26 0H10C9.2 0 8.44 0.32 7.88 0.88C7.32 1.44 7 2.21 7 3V18C7 18.32 7.15 18.62 7.42 18.81C7.68 19 8.02 19.05 8.32 18.95L11 18.06L10.99 18.05ZM28.99 5V15C28.99 16.66 27.65 18 25.99 18H12.99C12.99 18.27 13.1 18.52 13.28 18.71C13.47 18.9 13.72 19 13.99 19H28.99C29.1 19 29.2 19.02 29.31 19.05L30.99 19.61V6C30.99 5.73 30.88 5.48 30.7 5.29C30.51 5.1 30.26 5 29.99 5H28.99ZM26.99 3V15C26.99 15.55 26.54 16 25.99 16H11C10.89 16 10.79 16.02 10.68 16.05L9 16.61V3C9 2.73 9.11 2.48 9.29 2.29C9.48 2.1 9.73 2 10 2H26C26.27 2 26.52 2.11 26.71 2.29C26.9 2.48 27 2.73 27 3H26.99Z" fill="white"/>
</svg>
