<svg width="40" height="40" viewBox="0 0 40 40" fill="none" xmlns="http://www.w3.org/2000/svg">
<path d="M19.4886 2.84479L21.8509 5.20708C22.0932 5.44937 22.4566 5.44937 22.6989 5.20708C22.9412 4.9648 22.9412 4.60137 22.6989 4.35908L21.4269 3.08708C29.18 3.81394 35.6006 9.81053 36.6909 17.5637C36.7515 17.8666 37.0543 18.1088 37.3572 18.0483C37.6601 17.9877 37.9023 17.6848 37.8418 17.382C36.6909 9.20481 30.0886 2.84479 22.0326 1.93622L23.5469 1.14879C23.8497 0.967071 23.9709 0.603641 23.7892 0.300783C23.668 -0.00207487 23.3046 -0.0626465 23.0017 0.0584968L19.6703 1.87565C19.5491 1.93622 19.428 2.05736 19.3674 2.29965C19.3069 2.48136 19.3674 2.66308 19.4886 2.84479ZM39.8406 22.2883L37.9629 19.6231C37.9023 19.502 37.7206 19.3808 37.5389 19.3808C37.3572 19.3808 37.1755 19.4414 37.0543 19.5626L34.6921 21.9249C34.4498 22.1671 34.4498 22.5306 34.6921 22.7729C34.9343 23.0151 35.2978 23.0151 35.5401 22.7729L36.8121 21.5008C36.0852 29.3146 30.0886 35.7352 22.2749 36.8255C21.972 36.886 21.7297 37.1889 21.7297 37.4918C21.7903 37.8552 22.0932 38.0369 22.396 38.0369C30.7549 36.886 37.1755 30.0414 37.9629 21.7431L38.8715 22.9546C39.0532 23.1969 39.4166 23.2574 39.7195 23.0757C39.9618 22.9546 40.0224 22.5911 39.8406 22.2883ZM20.3972 37.1889L17.732 34.5237C17.4897 34.2815 17.1263 34.2815 16.884 34.5237C16.6417 34.766 16.6417 35.1295 16.884 35.3717L18.3983 36.886C10.7663 36.2198 4.40624 30.2837 3.25538 22.5911C3.19481 22.2883 2.89195 22.046 2.58909 22.1066C2.28624 22.1671 2.04395 22.47 2.10452 22.7729C3.31595 30.8289 9.85769 37.0678 17.732 38.0975L16.2177 38.8849C15.9148 39.006 15.7937 39.3695 15.9754 39.6723C16.0966 39.9752 16.46 40.0963 16.7629 39.9146L20.276 38.158C20.5183 38.0369 20.5789 37.8552 20.5789 37.6129C20.5183 37.4918 20.5183 37.31 20.3972 37.1889ZM2.40738 20.5923C2.52852 20.5923 2.71024 20.5317 2.83138 20.4106L5.31482 17.9271C5.5571 17.6848 5.5571 17.3214 5.31482 17.0791C5.07253 16.8368 4.7091 16.8368 4.46681 17.0791L3.07367 18.4723C3.73995 10.8402 9.43369 4.5408 17.0657 3.26879C17.3686 3.20822 17.6109 2.90536 17.5503 2.54193C17.5503 2.23907 17.2474 1.99679 16.9446 2.05736C8.7674 3.45051 2.71024 10.0528 1.92281 18.1694L1.0748 16.8974C0.893088 16.5945 0.529658 16.534 0.2268 16.7157C-0.0154862 16.8974 -0.0760578 17.3214 0.105657 17.5637L1.92281 20.35C2.04395 20.5317 2.22566 20.5923 2.40738 20.5923ZM9.49426 19.9866C9.49426 25.8014 14.2188 30.526 19.9731 30.526C25.7275 30.526 30.452 25.8014 30.452 19.9866C30.452 14.1717 25.7275 9.4471 19.9731 9.4471C14.2188 9.4471 9.49426 14.1717 9.49426 19.9866ZM29.2406 19.9866C29.2406 25.1351 25.0612 29.3146 19.9731 29.3146C14.8851 29.3146 10.7057 25.1351 10.7057 19.9866C10.7057 14.838 14.8851 10.6585 19.9731 10.6585C25.0612 10.6585 29.2406 14.838 29.2406 19.9866Z" fill="white"/>
<path d="M19.6097 13.2631V14.0505C18.58 14.1111 17.732 14.414 17.0657 15.0197C16.3994 15.6254 16.0966 16.3523 16.0966 17.3214C16.0966 18.2906 16.3994 18.9568 16.9446 19.4414C17.4897 19.926 18.3983 20.2894 19.6097 20.5923V23.742C18.6406 23.5603 17.732 23.1363 16.8234 22.3489L15.6726 23.742C16.8234 24.7717 18.156 25.3774 19.6097 25.4986V26.71H20.6394V25.5591C21.7297 25.4986 22.6383 25.1957 23.3046 24.59C23.9709 23.9843 24.2737 23.2574 24.2737 22.2883C24.2737 21.3191 23.9709 20.6528 23.4257 20.1077C22.82 19.6231 21.9115 19.1991 20.7 18.8963H20.6394V15.8677C21.4875 15.9888 22.2143 16.2917 22.9412 16.8368L23.9709 15.3225C22.9412 14.5957 21.7903 14.1717 20.6394 14.1111V13.2631H19.6097ZM19.6097 18.5934C19.004 18.4117 18.58 18.1694 18.3983 17.9877C18.156 17.806 18.0954 17.5031 18.0954 17.1397C18.0954 16.7763 18.2166 16.4734 18.5194 16.2311C18.8223 15.9888 19.1857 15.8677 19.6703 15.8071V18.5934H19.6097ZM21.972 21.5008C22.2143 21.7431 22.3355 22.046 22.3355 22.4094C22.3355 22.7729 22.2143 23.0757 21.9115 23.318C21.6086 23.5603 21.1846 23.742 20.7 23.742V20.8346C21.3057 21.0768 21.7297 21.2586 21.972 21.5008Z" fill="white"/>
</svg>
