<svg xmlns="http://www.w3.org/2000/svg" width="79" height="18" viewBox="0 0 79 18" fill="none"><path fill-rule="evenodd" clip-rule="evenodd" d="M7.56588 10.8323L2.78199 5.74432C2.68581 5.64034 2.50771 5.70846 2.50771 5.84472V10.7284C2.50414 10.8144 2.43646 10.8825 2.35097 10.879H0.192346C0.106856 10.8825 0.035614 10.8144 0.035614 10.7284V0.172229C0.035614 0.0861732 0.106856 0.018046 0.192346 0.0216316H2.35097C2.43646 0.018046 2.50771 0.0861732 2.50771 0.172229V3.9264C2.50771 4.06265 2.68225 4.13078 2.77842 4.03038L6.62548 0.068245C6.65754 0.0359742 6.70029 0.018046 6.74303 0.0216316H9.59627C9.6782 0.018046 9.74944 0.0825876 9.753 0.165057C9.75656 0.208085 9.73875 0.247527 9.71026 0.279798L5.1579 4.78695C5.10091 4.84432 5.09735 4.93396 5.15434 4.99492L5.1579 4.99851L10.6115 10.6316C10.6685 10.6925 10.6649 10.7893 10.6043 10.8467C10.5758 10.8754 10.5367 10.8897 10.4939 10.8897H7.68699C7.64068 10.8825 7.59793 10.8646 7.56588 10.8323Z" fill="#E3E0D3"></path><path fill-rule="evenodd" clip-rule="evenodd" d="M12.4495 0.0182017H14.6117C14.6972 0.0146161 14.7648 0.0827433 14.7684 0.168799V10.7321C14.7684 10.8182 14.6972 10.8827 14.6117 10.8827H12.4495C12.364 10.8863 12.2963 10.8182 12.2928 10.7321V0.168799C12.2963 0.0863289 12.3676 0.0182017 12.4495 0.0182017Z" fill="#E3E0D3"></path><path fill-rule="evenodd" clip-rule="evenodd" d="M18.0491 0.0180664H20.2612C20.311 0.0180664 20.3573 0.0395803 20.3858 0.0790224L25.7646 6.99932C25.8537 7.11406 26.0496 7.0531 26.0496 6.90968V0.172249C26.0496 0.0861937 26.1208 0.0180664 26.2063 0.0216521H28.3542C28.4397 0.0180664 28.511 0.0861937 28.511 0.172249V10.732C28.511 10.818 28.4397 10.8862 28.3542 10.8826H26.1671C26.1173 10.8826 26.0709 10.8611 26.0424 10.8216L20.6494 3.91208C20.5604 3.79734 20.368 3.85829 20.368 4.0053V10.732C20.368 10.818 20.2968 10.8862 20.2113 10.8826H18.0527C17.9672 10.8862 17.8959 10.818 17.8959 10.732V0.172249C17.8959 0.0861937 17.9636 0.0180664 18.0491 0.0180664Z" fill="#E3E0D3"></path><path fill-rule="evenodd" clip-rule="evenodd" d="M35.2504 8.71326C38.093 8.70251 39.3611 7.47263 39.3611 5.47184C39.3611 3.47105 38.093 2.18022 35.2504 2.15512L34.0465 2.14436C33.961 2.14078 33.8897 2.20891 33.8897 2.29496V8.56267C33.8897 8.64872 33.961 8.71685 34.0465 8.71326H35.2504ZM31.4319 0.168674C31.4319 0.0826182 31.5031 0.014491 31.5886 0.0180766L35.2576 0.000148403C39.3005 -0.0213655 41.8296 2.29855 41.8296 5.46826C41.8296 8.63797 39.3005 10.8826 35.2576 10.8826H31.5886C31.5031 10.8862 31.4319 10.818 31.4319 10.732V0.168674Z" fill="#E3E0D3"></path><path fill-rule="evenodd" clip-rule="evenodd" d="M46.5601 4.66497C46.5601 4.75102 46.6314 4.81915 46.7169 4.81557H49.6449C50.5782 4.81557 51.1766 4.37095 51.1766 3.47812C51.1766 2.60681 50.5817 2.15143 49.6449 2.15143H46.7169C46.6314 2.15143 46.5601 2.21956 46.5601 2.30203V4.66497ZM50.8311 10.8323L46.5886 6.36456C46.5815 6.35739 46.5708 6.35739 46.5673 6.36456C46.5637 6.36815 46.5637 6.37174 46.5637 6.37532V10.7319C46.5637 10.8179 46.4925 10.8861 46.407 10.8825H44.2483C44.1629 10.8861 44.0916 10.8179 44.0916 10.7319V0.172156C44.0916 0.0861003 44.1629 0.017973 44.2483 0.0215587H49.4526C52.06 0.0215587 53.7021 1.29805 53.7021 3.48171C53.7021 5.58289 52.3984 6.69444 50.0082 6.79484C49.9904 6.79484 49.9762 6.80918 49.9762 6.82353C49.9762 6.8307 49.9797 6.84145 49.9833 6.84504L53.9016 10.6279C53.9622 10.6853 53.9622 10.7821 53.9052 10.843C53.8767 10.8753 53.8339 10.8896 53.7912 10.8896H50.9486C50.9059 10.8825 50.8632 10.8645 50.8311 10.8323Z" fill="#E3E0D3"></path><path fill-rule="evenodd" clip-rule="evenodd" d="M59.0986 8.72401H65.3857C65.4712 8.72042 65.5389 8.78855 65.5424 8.8746V10.7499C65.5424 10.836 65.4712 10.9041 65.3857 10.9005H56.7939C56.7084 10.9005 56.6408 10.836 56.6372 10.7499V8.90329C56.6372 8.80289 56.7156 8.72401 56.8153 8.72401H59.0986ZM56.8153 6.33597C56.7156 6.33597 56.6372 6.25708 56.6372 6.15669V4.31367C56.6372 4.22761 56.7084 4.15948 56.7939 4.16307H65.3714C65.4569 4.16307 65.5246 4.22761 65.5282 4.31367V6.18537C65.5282 6.27143 65.4569 6.33955 65.3714 6.33597H56.8153ZM56.8153 2.17304C56.7156 2.17304 56.6372 2.09415 56.6372 1.99375V0.150732C56.6372 0.0646769 56.7084 0.000135314 56.7939 0.000135314H65.375C65.4605 -0.00345033 65.5282 0.0646769 65.5317 0.150732V2.02244C65.5317 2.10849 65.4605 2.17304 65.375 2.17304C65.3714 2.17304 56.8153 2.17304 56.8153 2.17304Z" fill="#E3E0D3"></path><path fill-rule="evenodd" clip-rule="evenodd" d="M72.2321 8.71326C75.0746 8.70251 76.3427 7.47263 76.3427 5.47184C76.3427 3.47105 75.0746 2.18022 72.2321 2.15871L71.0281 2.14795C70.9426 2.14436 70.8749 2.21249 70.8714 2.29855V8.56984C70.8714 8.65589 70.9426 8.72044 71.0281 8.72044L72.2321 8.71326ZM68.4135 0.168674C68.4135 0.0826182 68.4848 0.0180766 68.5667 0.0180766L72.2392 0.000148403C76.2822 -0.0213655 78.8113 2.29855 78.8113 5.46826C78.8113 8.63797 76.2822 10.8826 72.2392 10.8826H68.5667C68.4812 10.8862 68.4135 10.818 68.41 10.732L68.4135 0.168674Z" fill="#E3E0D3"></path><path fill-rule="evenodd" clip-rule="evenodd" d="M0 17.5519L0.441699 16.9388C0.826405 17.1503 1.25386 17.2615 1.69199 17.2651C2.08739 17.2651 2.33673 17.1252 2.35098 16.8993C2.36523 16.6806 2.22275 16.6017 1.78105 16.5085L1.31797 16.4081C0.484444 16.2288 0.149608 15.8631 0.149608 15.3217C0.149608 14.7228 0.780098 14.2818 1.59938 14.2782C2.11588 14.2782 2.62526 14.4109 3.07765 14.6655L2.66444 15.275C2.36167 15.1029 2.03752 14.9882 1.67775 14.9882C1.29304 14.9882 1.02232 15.1137 1.02588 15.3432C1.02588 15.544 1.18618 15.6444 1.55663 15.7232L2.06601 15.8308C2.86748 15.9993 3.1952 16.3292 3.19876 16.8993C3.19876 17.5232 2.58252 17.975 1.65637 17.975C1.0615 17.9786 0.431013 17.8137 0 17.5519Z" fill="#E3E0D3"></path><path fill-rule="evenodd" clip-rule="evenodd" d="M13.3756 15.0491H12.193L12.1895 14.332H15.3668V15.0491H14.1842V17.9284H13.3792V15.0491H13.3756Z" fill="#E3E0D3"></path><path fill-rule="evenodd" clip-rule="evenodd" d="M24.5998 16.1678V14.332H25.4191V16.1678C25.4191 16.8491 25.6969 17.2435 26.3666 17.2435C27.0363 17.2435 27.3141 16.8491 27.3141 16.1714V14.332H28.1441V16.1714C28.1441 17.2794 27.5314 17.975 26.3666 17.975C25.2018 17.975 24.5998 17.283 24.5998 16.1678Z" fill="#E3E0D3"></path><path fill-rule="evenodd" clip-rule="evenodd" d="M39.037 17.2113C39.9774 17.2077 40.3977 16.799 40.3977 16.1392C40.3977 15.4795 39.9774 15.0492 39.037 15.042L38.5846 15.0384V17.2113H39.037ZM37.7689 14.3321L39.037 14.3249C40.3763 14.3177 41.2134 15.085 41.2134 16.1356C41.2134 17.1862 40.3763 17.9285 39.037 17.9285H37.7689V14.3321Z" fill="#E3E0D3"></path><path fill-rule="evenodd" clip-rule="evenodd" d="M50.6886 17.9284H51.5078V14.332H50.6886V17.9284Z" fill="#E3E0D3"></path><path fill-rule="evenodd" clip-rule="evenodd" d="M64.1746 16.1283C64.1746 15.465 63.6439 14.9952 62.9885 14.9952C62.333 14.9952 61.8023 15.465 61.8023 16.1283C61.8023 16.7916 62.333 17.2614 62.9885 17.2614C63.6439 17.2614 64.1746 16.7916 64.1746 16.1283ZM60.9866 16.1283C60.9866 15.0777 61.8557 14.2638 62.9885 14.2638C64.1212 14.2638 64.9904 15.0813 64.9904 16.1283C64.9904 17.1753 64.1212 18 62.9885 18C61.8557 18 60.9866 17.1789 60.9866 16.1283Z" fill="#E3E0D3"></path><path fill-rule="evenodd" clip-rule="evenodd" d="M74.145 17.5517L74.5867 16.9385C74.9714 17.1501 75.3988 17.2612 75.837 17.2648C76.2323 17.2648 76.4817 17.125 76.4959 16.8991C76.5102 16.6803 76.3677 16.6015 75.926 16.5082L75.4629 16.4114C74.6294 16.2321 74.2946 15.8664 74.2946 15.325C74.2946 14.7262 74.9251 14.2851 75.7443 14.2816C76.2608 14.2816 76.7702 14.4142 77.219 14.6688L76.8058 15.2784C76.5031 15.1063 76.1789 14.9915 75.8191 14.9915C75.4344 14.9915 75.1637 15.117 75.1673 15.3465C75.1673 15.5473 75.3276 15.6477 75.698 15.723L76.2074 15.8305C77.0053 15.9991 77.3366 16.329 77.3402 16.8991C77.3402 17.523 76.7204 17.9748 75.7978 17.9748C75.2065 17.9783 74.576 17.8134 74.145 17.5517Z" fill="#E3E0D3"></path></svg>