<svg width="61" height="19" viewBox="0 0 61 19" fill="none" xmlns="http://www.w3.org/2000/svg">
<path d="M2.40978 0.53418H0V18.1413H2.40978V0.53418Z" fill="#75D1AC"/>
<path d="M10.5778 3.59851H7.8552L2.40962 10.5544L8.49667 18.1413H11.376L5.13258 10.3808L10.5778 3.59851Z" fill="#75D1AC"/>
<path d="M15.721 0.53418H13.3112V18.1413H15.721V0.53418Z" fill="#75D1AC"/>
<path d="M29.8875 5.53063C29.2851 4.87529 28.5554 4.35183 27.7438 3.99276C26.9199 3.62866 26.0301 3.44067 25.1306 3.44067C24.231 3.44067 23.3412 3.62866 22.5174 3.99276C21.7041 4.35302 20.9721 4.87625 20.3658 5.53063C19.7412 6.21099 19.2524 7.00625 18.9262 7.87294C18.5673 8.83012 18.3895 9.84662 18.402 10.8698C18.3886 11.8982 18.5664 12.92 18.9262 13.8824C19.2524 14.7491 19.7412 15.5444 20.3658 16.2248C21.2908 17.2127 22.4952 17.8895 23.8153 18.1633C25.1353 18.437 26.507 18.2944 27.7438 17.7548C28.5561 17.4005 29.2862 16.8794 29.8875 16.2248C30.5098 15.5396 30.9982 14.7423 31.3271 13.8746C31.6907 12.9157 31.8712 11.8962 31.8592 10.8698C31.8717 9.8459 31.6912 8.82891 31.3271 7.87294C30.9969 7.00824 30.5086 6.21371 29.8875 5.53063ZM29.0816 12.9913C28.8595 13.5887 28.5336 14.1415 28.1193 14.6238C27.7369 15.0653 27.2681 15.4224 26.7423 15.6727C26.2391 15.9156 25.6885 16.0422 25.1305 16.0434C24.5702 16.0417 24.0171 15.9151 23.511 15.6727C22.9789 15.4216 22.5025 15.0649 22.1105 14.6238C21.6889 14.1468 21.3622 13.5926 21.1481 12.9913C20.906 12.311 20.7867 11.5925 20.7961 10.8698C20.7862 10.1497 20.9055 9.43363 21.1481 8.75621C21.3635 8.15789 21.6901 7.60649 22.1105 7.1316C22.5025 6.69052 22.9789 6.33376 23.511 6.08267C24.0171 5.84029 24.5702 5.71372 25.1305 5.71202C25.6885 5.71317 26.2391 5.8398 26.7423 6.08267C27.2681 6.33298 27.7369 6.69009 28.1193 7.1316C28.5325 7.61182 28.8582 8.1618 29.0816 8.75622C29.3347 9.43126 29.4594 10.1483 29.4494 10.8698C29.4589 11.5939 29.3342 12.3134 29.0816 12.9913Z" fill="#75D1AC"/>
<path d="M39.5365 3.71668C39.0748 3.87646 38.6336 4.09089 38.2221 4.35549C37.8372 4.59826 37.4849 4.88981 37.1736 5.22299L36.5321 3.59838H34.7639V18.1412H37.1736V9.90763C37.147 9.37051 37.2275 8.83347 37.4102 8.32822C37.593 7.82296 37.8744 7.35976 38.2377 6.96596C38.599 6.60008 39.0318 6.31375 39.5085 6.12505C39.9852 5.93636 40.4956 5.8494 41.0074 5.86969H41.649V3.44065H41.336C40.7249 3.42837 40.1163 3.52173 39.5365 3.71668Z" fill="#75D1AC"/>
<path d="M53.2189 4.92323C52.7154 4.45622 52.1287 4.08961 51.4898 3.84279C50.7889 3.56943 50.0428 3.43292 49.2912 3.44055C48.5574 3.42767 47.8269 3.5424 47.1318 3.77969C46.5363 3.98815 45.9845 4.30639 45.5044 4.7182C45.0515 5.11011 44.6748 5.58345 44.3935 6.1141C44.1128 6.64217 43.9273 7.21629 43.8457 7.80972H46.412C46.5445 7.21648 46.8561 6.6792 47.3039 6.27185C47.7317 5.89856 48.3941 5.71191 49.2912 5.7119C49.6932 5.69591 50.0944 5.76014 50.4717 5.9009C50.849 6.04166 51.195 6.25617 51.4898 6.53211C51.7584 6.77418 51.9733 7.07075 52.1203 7.40237C52.2672 7.734 52.343 8.09319 52.3426 8.45641V9.26085C50.8437 9.23714 49.3458 9.35063 47.8673 9.59994C46.8816 9.7537 45.9306 10.0821 45.0585 10.57C44.4475 10.9149 43.9478 11.4296 43.6188 12.0527C43.3374 12.6428 43.1955 13.2907 43.2042 13.9454C43.2004 14.5269 43.3205 15.1024 43.5563 15.6331C43.7889 16.156 44.1212 16.6276 44.5343 17.0212C44.9683 17.4313 45.479 17.7503 46.0365 17.9597C46.6674 18.194 47.3358 18.309 48.0081 18.2988C48.6482 18.3113 49.2866 18.2262 49.9015 18.0464C50.376 17.9048 50.8289 17.6978 51.2472 17.4313C51.6504 17.182 52.0187 16.8796 52.3426 16.5322L52.9842 18.1411H54.7367V8.45641C54.7416 7.78597 54.6056 7.12209 54.3377 6.50843C54.0753 5.90897 53.6947 5.36962 53.2189 4.92323ZM52.3426 12.652C52.3386 13.0776 52.2283 13.4953 52.0218 13.8665C51.7971 14.2795 51.4971 14.6461 51.1377 14.947C50.7293 15.2868 50.2662 15.5535 49.7685 15.7357C49.2052 15.9454 48.6086 16.0496 48.0081 16.0433C47.3718 16.0765 46.7471 15.8619 46.2634 15.4439C46.0657 15.2807 45.9054 15.0765 45.7933 14.8451C45.6812 14.6137 45.62 14.3606 45.614 14.1032C45.6059 13.7293 45.6864 13.359 45.8487 13.0227C46.0719 12.6542 46.4105 12.3712 46.811 12.2183C47.4637 11.9479 48.1513 11.7726 48.8531 11.6978C50.0111 11.5611 51.1768 11.5005 52.3426 11.5164L52.3426 12.652Z" fill="#75D1AC"/>
<path d="M60.6367 0.811383C60.6188 0.785939 60.6002 0.760942 60.5811 0.736393C59.6553 -0.447485 58.1672 0.147762 56.919 0.163076C55.71 0.177879 54.6403 0.37139 54.6347 1.67393C54.6302 2.70737 55.3944 3.33305 56.05 4.01222C56.3626 4.31737 56.6373 4.6597 56.8679 5.03168C57.2501 5.69123 57.7606 6.41036 58.6219 6.26172C59.0405 6.17771 59.411 5.93447 59.6564 5.58247C60.0176 5.08306 60.0578 4.46849 60.2847 3.9146C60.499 3.39166 60.8458 2.96064 60.9596 2.39158C61.0139 2.11983 61.0133 1.83983 60.9578 1.56832C60.9023 1.29682 60.7931 1.03937 60.6367 0.811383ZM58.0286 4.30523C58.0255 4.30489 58.0301 4.29917 58.037 4.29186L58.046 4.28696C58.0382 4.29811 58.0318 4.30556 58.0286 4.30524V4.30523Z" fill="#75D1AC"/>
</svg>
