<svg xmlns="http://www.w3.org/2000/svg" width="34" height="43" viewBox="0 0 34 43" fill="none"><path d="M33 1H1V42H33V1Z" stroke="white" stroke-width="1.5" stroke-miterlimit="10"></path><path d="M26.7619 24.709L25.8395 31.9164L24.7163 24.709H22.8053L21.7179 31.9494L20.6956 24.709H18.5063L20.6799 38.1313H22.6212L23.7681 30.5061L24.9957 38.1313H26.9358L28.9523 24.709H26.7619Z" fill="white"></path><path d="M7.95157 34.7247C7.95157 35.2186 8.03236 35.5828 8.19395 35.8173C8.35441 36.0525 8.65402 36.1691 9.09166 36.1691C9.52929 36.1691 9.82778 36.0525 9.98937 35.8173C10.151 35.5821 10.2318 35.2183 10.2318 34.7247V28.1163C10.2318 27.6224 10.151 27.2582 9.98937 27.0237C9.82778 26.7885 9.52817 26.672 9.09166 26.672C8.65515 26.672 8.35441 26.7885 8.19395 27.0237C8.03348 27.259 7.95157 27.6228 7.95157 28.1163V34.7247ZM5.81053 28.0614C5.8074 27.6208 5.87441 27.1825 6.00915 26.7621C6.1318 26.3695 6.3375 26.0066 6.61286 25.697C6.89442 25.3883 7.24242 25.1447 7.63176 24.9836C8.57173 24.6351 9.60934 24.6351 10.5493 24.9836C10.9387 25.1447 11.2867 25.3883 11.5682 25.697C11.8433 26.007 12.0493 26.3697 12.173 26.7621C12.3072 27.1826 12.3742 27.6209 12.3717 28.0614V34.7786C12.3743 35.2191 12.3073 35.6574 12.173 36.0778C12.0502 36.4706 11.8441 36.8336 11.5682 37.1429C11.287 37.452 10.9389 37.6957 10.5493 37.8563C9.60934 38.2049 8.57173 38.2049 7.63176 37.8563C7.2422 37.6957 6.89412 37.452 6.61286 37.1429C6.33728 36.8335 6.13155 36.4706 6.00915 36.0778C5.87494 35.6574 5.80794 35.2191 5.81053 34.7786V28.0614Z" fill="white"></path><path d="M20.3029 18.302V5.2644H22.4181L25.1954 12.7213H25.2325V5.2644H27.2927V18.3009H25.3054L22.3991 10.1569H22.362V18.3009H20.3029V18.302Z" fill="white"></path><path d="M10.3137 8.48065C10.298 8.24268 10.2454 8.00843 10.1577 7.78596C10.0909 7.62125 9.99051 7.47163 9.8626 7.34628C9.75452 7.24388 9.62622 7.16421 9.48556 7.11215C9.36225 7.06591 9.23157 7.04136 9.09954 7.03961C8.73148 7.03961 8.4487 7.14953 8.25345 7.36937C8.0582 7.58921 7.95833 7.90797 7.95833 8.31688C7.95617 8.68648 8.07407 9.04718 8.29497 9.34682C8.54699 9.68714 8.83347 10.0016 9.15004 10.2855C9.49342 10.5984 9.86746 10.9146 10.2722 11.2341C10.6774 11.553 11.0529 11.9065 11.3943 12.2905C11.7376 12.6745 12.0257 13.1028 12.2505 13.5633C12.4829 14.0582 12.598 14.5982 12.5871 15.1429C12.5968 15.634 12.5064 16.122 12.3212 16.5784C12.1561 16.9754 11.905 17.3324 11.5851 17.6249C11.2586 17.9152 10.872 18.133 10.4517 18.2635C9.98046 18.4122 9.48803 18.4864 8.99294 18.4833C8.50447 18.4912 8.02033 18.3925 7.57568 18.1943C7.16955 18.0101 6.80894 17.742 6.51863 17.4083C6.22388 17.0702 5.99561 16.6814 5.84534 16.2619C5.68226 15.8146 5.58883 15.3459 5.56818 14.8714L7.73951 14.5647C7.78777 15.2242 7.93589 15.72 8.18051 16.0453C8.28087 16.1947 8.41742 16.3175 8.57797 16.4026C8.73852 16.4878 8.91809 16.5327 9.10067 16.5334C9.44717 16.5485 9.78743 16.4394 10.0579 16.2267C10.3025 16.0222 10.4259 15.7277 10.4259 15.3418C10.4343 14.9324 10.317 14.53 10.0893 14.1866C9.845 13.8293 9.55793 13.502 9.2342 13.2116C8.89083 12.8994 8.51678 12.5865 8.11206 12.2729C7.70887 11.9614 7.33347 11.6168 6.98993 11.2429C6.64316 10.8649 6.35505 10.439 6.13485 9.97886C5.8985 9.46074 5.78348 8.89738 5.79821 8.33007C5.79821 7.28363 6.10493 6.48012 6.71837 5.91953C7.3318 5.35894 8.19922 5.08047 9.32061 5.08414C9.74975 5.07737 10.1757 5.15745 10.5718 5.31937C10.9319 5.47056 11.2548 5.69543 11.5189 5.97888C11.7913 6.27354 12.0092 6.61239 12.163 6.98025C12.3333 7.38378 12.4418 7.80973 12.485 8.24432L10.3137 8.48065Z" fill="white"></path></svg>