<svg xmlns="http://www.w3.org/2000/svg" width="22" height="22" viewBox="0 0 22 22" fill="none"><path d="M6.11111 0C4.49034 0 2.93596 0.643847 1.7899 1.7899C0.643847 2.93596 0 4.49034 0 6.11111V15.8889C0 17.5097 0.643847 19.064 1.7899 20.2101C2.93596 21.3562 4.49034 22 6.11111 22H15.8889C17.5097 22 19.064 21.3562 20.2101 20.2101C21.3562 19.064 22 17.5097 22 15.8889V6.11111C22 4.49034 21.3562 2.93596 20.2101 1.7899C19.064 0.643847 17.5097 0 15.8889 0H6.11111ZM18.3333 2.44444C19.0056 2.44444 19.5556 2.99444 19.5556 3.66667C19.5556 4.33889 19.0056 4.88889 18.3333 4.88889C17.6611 4.88889 17.1111 4.33889 17.1111 3.66667C17.1111 2.99444 17.6611 2.44444 18.3333 2.44444ZM11 4.88889C12.6208 4.88889 14.1752 5.53274 15.3212 6.67879C16.4673 7.82485 17.1111 9.37923 17.1111 11C17.1111 12.6208 16.4673 14.1752 15.3212 15.3212C14.1752 16.4673 12.6208 17.1111 11 17.1111C9.37923 17.1111 7.82485 16.4673 6.67879 15.3212C5.53274 14.1752 4.88889 12.6208 4.88889 11C4.88889 9.37923 5.53274 7.82485 6.67879 6.67879C7.82485 5.53274 9.37923 4.88889 11 4.88889ZM11 7.33333C10.5183 7.33349 10.0414 7.42852 9.59645 7.613C9.15151 7.79748 8.74725 8.06779 8.40677 8.4085C8.06629 8.74921 7.79625 9.15364 7.61207 9.59871C7.42789 10.0438 7.33317 10.5208 7.33333 11.0024C7.33349 11.4841 7.42852 11.961 7.613 12.406C7.79748 12.8509 8.06779 13.2552 8.4085 13.5957C8.74921 13.9362 9.15364 14.2062 9.59871 14.3904C10.0438 14.5746 10.5208 14.6693 11.0024 14.6691C11.9752 14.6688 12.908 14.282 13.5957 13.5939C14.2833 12.9059 14.6694 11.9728 14.6691 11C14.6688 10.0272 14.282 9.0944 13.5939 8.40677C12.9059 7.71914 11.9728 7.33301 11 7.33333Z" fill="white"></path></svg>